<?xml version="1.0" encoding="UTF-8"?>
<!DOCTYPE svg PUBLIC "-//W3C//DTD SVG 1.1//EN" "http://www.w3.org/Graphics/SVG/1.1/DTD/svg11.dtd">
<svg xmlns="http://www.w3.org/2000/svg" fill-rule="evenodd" preserveAspectRatio="xMidYMid" viewBox="0 0 23000 16000">
  <g fill="teal">
    <path d="M7794 8980c363 0 685-31 972-89l98 491 98 490c-344 69-732 108-1168 108V8980Z"/>
    <path d="M8766 8891c271-54 509-132 716-228l212 453 211 453c-273 127-585 231-943 303l-98-490-98-491Z"/>
    <path d="M9482 8663c197-92 366-201 510-322l322 383 321 383c-206 173-447 330-730 462l-211-453-212-453Z"/>
    <path d="M9992 8341c141-119 258-248 355-384l407 291 407 290c-144 201-317 393-526 569l-321-383-322-383Z"/>
    <path d="M10347 7957c199-279 314-582 380-861l487 116 486 115c-93 393-259 818-539 1211l-407-290-407-291Z"/>
    <path d="M10727 7096c70-291 87-558 87-752h1000c0 254-23 603-114 983l-486-115-487-116Zm87-752c0-49-1-92-3-131l500-21 499-21c2 51 4 109 4 173h-1000Z"/>
    <path d="M10811 6213c-2-37-4-69-6-96l499-39 498-40c3 37 6 81 8 133l-499 21-500 21Z"/>
    <path d="M10805 6117c-1-12-2-23-3-33l498-48 498-48c1 14 3 31 4 50l-498 40-499 39Z"/>
    <path d="M10802 6084c-1-9-1-17-2-23l497-56 497-56c1 11 2 23 4 39l-498 48-498 48Z"/>
    <path d="M10800 6061c0-3-1-5-1-7l497-60 496-60c0 4 1 9 2 15l-497 56-497 56Z"/>
    <path d="M10799 6054v-4l496-64 495-63c1 3 1 7 2 11l-496 60-497 60Z"/>
    <path d="M10799 6050c0-1-1-1-1-1l496-66 496-65v5l-495 63-496 64Z"/>
    <path d="m10798 6049 496-68 495-67c0 1 1 2 1 4l-496 65-496 66Z"/>
    <path d="m10898 6035 396-54 495-68v1l-495 67-396 54Z"/>
    <path d="m11008 6020 286-40 495-69v2l-495 68-286 39Z"/>
    <path d="m11121 6004 173-24 495-70v1l-495 69-173 24Z"/>
    <path d="m11235 5988 59-8 495-71v1l-495 70-59 8Z"/>
    <path d="M10799 6050c-4-24-5-45-5-70h500l-495 70Zm348-70 147-2 500-5v7h-647Z"/>
    <path d="m10867 5982 427-8 499-10c1 4 1 7 1 9l-500 5-427 4Z"/>
    <path d="M10794 5984v-2l499-15 500-15v12l-499 10-500 10Z"/>
    <path d="M10794 5982c0-1 0-3-1-5l500-20 500-20v15l-500 15-499 15Z"/>
    <path d="M10793 5977v-16l499-32 499-31c1 15 1 28 2 39l-500 20-500 20Z"/>
    <path d="M10793 5961c-1-8-2-16-2-26l498-43 498-43c2 18 3 35 4 49l-499 31-499 32Z"/>
    <path d="M10791 5935c-2-22-5-48-9-79l495-67 496-68c6 50 11 93 14 128l-498 43-498 43Z"/>
    <path d="M10782 5856c-5-32-11-69-18-110l491-94 491-95c11 61 20 116 27 164l-496 68-495 67Z"/>
    <path d="M10764 5746c-17-84-41-185-78-297l476-155 475-155c52 158 86 299 109 418l-491 95-491 94Z"/>
    <path d="M10686 5449c-37-114-86-239-152-371l447-223 447-224c91 181 158 352 209 508l-475 155-476 155Z"/>
    <path d="M10534 5078c-134-267-335-561-636-842l341-366 341-365c402 375 670 769 848 1126l-447 224-447 223Z"/>
    <path d="M9898 4236c-314-293-733-569-1290-792l186-464 185-465c693 278 1211 626 1601 990l-341 365-341 366Z"/>
    <path d="M8608 3444c-250-100-501-144-747-144V2300c369 0 744 66 1118 215l-185 465-186 464Zm-747-144c-223 0-443 35-657 96l-136-481-136-481c302-86 614-134 929-134v1000Z"/>
    <path d="M7204 3396c-226 64-445 156-656 266l-231-443-231-444c272-141 555-258 846-341l136 481 136 481Z"/>
    <path d="M6548 3662c-444 232-850 542-1194 850l-334-372-334-373c403-361 880-721 1400-992l231 444 231 443Z"/>
    <path d="M5354 4512c-354 317-645 635-846 872l-382-323-381-323c225-265 547-618 941-971l334 373 334 372Z"/>
    <path d="M4508 5384c-51 60-95 114-134 162l-389-314-390-314c44-53 94-114 150-180l381 323 382 323Z"/>
    <path d="M4374 5546c-39 48-72 90-98 124l-396-305-396-306c30-39 68-86 111-141l390 314 389 314Z"/>
    <path d="M4276 5670c-13 17-24 32-34 45l-399-302-399-301c12-15 25-33 40-53l396 306 396 305Z"/>
    <path d="M4242 5715c-10 13-18 24-25 32l-401-297-402-298c8-11 18-24 30-40l399 301 399 302Z"/>
    <path d="M4217 5747c-3 5-5 8-8 11l-403-295-403-296c3-5 7-10 11-15l402 298 401 297Z"/>
    <path d="M4209 5758c-2 3-4 6-5 8l-405-294-404-294c2-3 5-7 8-11l403 296 403 295Z"/>
    <path d="M4204 5766c-2 2-3 3-3 4l-406-292-406-293c2-1 3-4 6-7l404 294 405 294Z"/>
    <path d="m4201 5770-407-290-407-291s1-1 2-4l406 293 406 292Z"/>
    <path d="M3365 5222c7-11 14-22 22-33l407 291-429-258Z"/>
    <path d="m3953 5575-160-95-430-255c1-2 2-3 2-3l429 258 159 95Z"/>
    <path d="m4223 5736-431-253-432-253c2-2 3-4 3-5l430 255 430 256Z"/>
    <path d="M4223 5736s-1 1-1 2l-433-251-432-251 3-6 432 253 431 253Z"/>
    <path d="M4222 5738s-1 2-2 3l-434-248-434-249c2-3 3-5 5-8l432 251 433 251Z"/>
    <path d="M4220 5741c-2 3-4 7-6 11l-437-244-436-243c4-8 8-15 11-21l434 249 434 248Z"/>
    <path d="M4214 5752c-3 5-6 11-10 17l-439-238-439-239c5-10 10-19 15-27l436 243 437 244Z"/>
    <path d="M4204 5769c-7 14-16 32-27 52l-445-228-445-228c15-29 28-53 39-73l439 239 439 238Z"/>
    <path d="M4177 5821c-11 22-24 47-37 75l-450-217-451-217c18-37 34-69 48-97l445 228 445 228Z"/>
    <path d="M4140 5896c-28 58-61 130-96 213l-461-192-462-192c43-104 84-192 118-263l451 217 450 217Z"/>
    <path d="M4044 6109c-35 86-73 184-111 294l-473-164-472-164c45-131 91-248 133-350l462 192 461 192Z"/>
    <path d="M3933 6403c-77 220-153 488-210 794l-492-92-491-92c67-361 158-677 248-938l472 164 473 164Z"/>
    <path d="M3723 7197c-58 306-96 650-96 1023H2627c0-441 45-847 113-1207l491 92 492 92Zm-96 1023c0 374 38 777 134 1201l-488 110-488 109c-113-501-158-978-158-1420h1000Z"/>
    <path d="M3761 9421c96 426 250 874 480 1335l-447 224-448 223c-269-539-449-1063-561-1563l488-109 488-110Z"/>
    <path d="M4241 10756c94 189 207 358 336 511l-382 322-383 323c-178-212-335-447-466-709l448-223 447-224Z"/>
    <path d="M4577 11267c130 155 276 292 434 413l-304 397-305 396c-215-165-413-352-590-561l383-323 382-322Z"/>
    <path d="M5011 11680c331 255 714 442 1119 582l-163 473-163 472c-508-175-987-415-1402-734l305-396 304-397Z"/>
    <path d="M6130 12262c860 297 1818 378 2632 378v1000c-915 0-1991-99-2958-433l163-472 163-473Zm2632 378c554 0 1043-39 1393-77l55 497 54 497c-377 41-905 83-1502 83v-1000Z"/>
    <path d="M10155 12563c87-10 166-19 235-28l64 495 65 496c-75 10-160 20-255 31l-54-497-55-497Z"/>
    <path d="M10390 12535c68-9 127-18 174-25l74 495 74 494c-53 8-117 17-193 27l-65-496-64-495Z"/>
    <path d="M10564 12510c24-3 45-7 63-9l78 493 78 494c-21 4-44 7-71 11l-74-494-74-495Z"/>
    <path d="M10627 12501c18-3 33-6 45-8l82 494 82 493c-15 2-32 5-53 8l-78-494-78-493Z"/>
    <path d="M10672 12493c5-1 11-2 15-2l84 493 84 493c-6 0-12 2-19 3l-82-493-82-494Z"/>
    <path d="M10687 12491c4-1 8-2 11-2l86 492 85 493c-4 1-8 2-14 3l-84-493-84-493Z"/>
    <path d="M10698 12489c1 0 2-1 3-1l87 493 87 492c-2 0-4 1-6 1l-85-493-86-492Z"/>
    <path d="M10701 12488h2l88 492 88 492c-1 1-3 1-4 1l-87-492-87-493Z"/>
    <path d="M10703 12488h1l89 492 89 492h-3l-88-492-88-492Z"/>
    <path d="m10729 12625 65 355 89 492h-1l-89-492-64-355Z"/>
    <path d="M10915 13465c-11 2-21 5-32 7l-89-492 121 485Z"/>
    <path d="m10715 12667 80 312 124 485c-3 0-4 1-4 1l-121-485-79-313Z"/>
    <path d="M10672 12495s1 0 2-1l125 484 126 484c-3 1-5 1-6 2l-124-485-123-484Z"/>
    <path d="M10674 12494c1 0 2 0 4-1l129 483 128 484c-4 1-7 1-10 2l-126-484-125-484Z"/>
    <path d="M10678 12493c3-1 5-1 8-2l130 483 131 482c-5 2-9 3-12 4l-128-484-129-483Z"/>
    <path d="M10686 12491c6-2 13-4 22-6l136 481 135 481c-12 4-23 7-32 9l-131-482-130-483Z"/>
    <path d="M10708 12485c10-3 21-6 33-10l141 480 140 480c-16 5-30 9-43 12l-135-481-136-481Z"/>
    <path d="M10741 12475c25-7 56-16 92-28l152 477 151 476c-44 14-82 26-114 35l-140-480-141-480Z"/>
    <path d="M10833 12447c37-12 79-25 125-41l164 472 163 473c-55 19-105 35-149 49l-151-476-152-477Z"/>
    <path d="M10958 12406c94-33 206-74 330-126l191 462 191 463c-145 59-275 108-385 146l-163-473-164-472Z"/>
    <path d="M11288 12280c125-51 262-113 407-185l224 447 223 447c-168 84-327 156-472 216l-191-463-191-462Z"/>
    <path d="M11695 12095c285-143 600-328 899-563l309 393 309 393c-357 280-730 502-1070 671l-223-447-224-447Z"/>
    <path d="M12594 11532c288-227 564-500 784-830l416 278 416 277c-281 421-630 772-998 1061l-309-393-309-393Z"/>
    <path d="M13378 10702c151-226 347-435 579-625l317 386 318 386c-152 125-283 260-382 408l-416-277-416-278Z"/>
    <path d="M13957 10077c214-176 458-336 721-481l241 438 241 438c-207 114-400 239-568 377l-318-386-317-386Z"/>
    <path d="M14678 9596c497-273 1061-490 1592-656l149 477 149 477c-469 147-968 337-1408 578l-241-438-241-438Z"/>
    <path d="M16270 8940c518-162 1004-276 1361-349l100 490 100 490c-331 68-782 173-1263 323l-149-477-149-477Z"/>
    <path d="M17631 8591c89-18 170-34 242-47l91 492 92 491c-67 13-142 27-225 44l-100-490-100-490Z"/>
    <path d="M17873 8544c71-13 134-24 185-33l83 493 84 493c-47 8-104 18-169 30l-92-491-91-492Z"/>
    <path d="M18058 8511c25-4 48-8 68-11l80 493 81 494c-18 3-39 6-62 10l-84-493-83-493Z"/>
    <path d="M18126 8500c20-4 37-6 51-8l77 494 77 494c-12 2-27 4-44 7l-81-494-80-493Z"/>
    <path d="M18177 8492c7-1 14-2 19-3l75 494 76 494c-5 1-10 2-16 3l-77-494-77-494Z"/>
    <path d="M18196 8489c5-1 10-2 14-2l74 494 73 495c-3 0-6 1-10 1l-76-494-75-494Z"/>
    <path d="M18210 8487c4-1 7-1 9-2l72 495 72 495c-1 0-3 0-6 1l-73-495-74-494Z"/>
    <path d="M18219 8485h4l71 495 70 495h-1l-72-495-72-495Z"/>
    <path d="M18452 9454c-29 10-57 16-88 21l-70-495 158 474Z"/>
    <path d="M18136 8505h2l156 475 51 154-51-154-158-475Z"/>
    <path d="M18138 8505c0-1 1-1 2-1l156 475 149 457-151-456-156-475Z"/>
    <path d="M18140 8504c2-1 3-1 4-2l154 476 154 476h-1l-155-475-156-475Z"/>
    <path d="M18144 8502c2 0 3-1 5-1l152 476 152 477h-1l-154-476-154-476Z"/>
    <path d="M18149 8501c4-1 8-3 13-4l149 477 149 478c-3 0-5 1-7 2l-152-477-152-476Z"/>
    <path d="M18162 8497c5-2 10-3 16-5l146 478 146 478c-4 2-7 3-10 4l-149-478-149-477Z"/>
    <path d="M18178 8492c12-4 27-8 44-13l139 480 139 481c-12 3-22 6-30 8l-146-478-146-478Z"/>
    <path d="M18222 8479c17-5 36-10 58-16l132 482 131 482c-16 5-31 9-43 13l-139-481-139-480Z"/>
    <path d="M18280 8463c43-12 95-26 156-40l115 486 116 487c-48 11-90 22-124 31l-131-482-132-482Z"/>
    <path d="M18436 8423c60-14 128-30 204-45l98 491 98 490c-63 12-119 25-169 37l-116-487-115-486Z"/>
    <path d="M18640 8378c302-60 726-121 1209-121v1000c-405 0-760 51-1013 102l-98-490-98-491Zm1209-121c493 0 1048 63 1603 248l-158 475-158 474c-446-148-891-197-1287-197V8257Z"/>
    <path d="M21452 8505c17 6 31 11 43 13l-108 488-107 489c-41-9-89-22-144-41l158-474 158-475Z"/>
    <path d="m21480 8589-56 424-66 496c-24-3-50-8-78-14l107-489 93-417Z"/>
    <path d="M21453 8794v721c-28 0-60-2-95-6l66-496 29-219Zm0 118 21 101 102 490c-35 7-76 12-123 12v-603Z"/>
    <path d="m21464 8969 25 39 264 424c-48 30-105 56-177 71l-102-490-10-44Z"/>
    <path d="m21474 8985 20 18 359 348c-29 30-62 57-100 81l-264-424-15-23Z"/>
    <path d="m21477 8988 21 10 440 238c-23 42-51 80-85 115l-359-348-17-15Z"/>
    <path d="m21477 8987 23 6 487 113c-11 46-28 90-49 130l-440-238-21-11Z"/>
    <path d="M21471 8986h529c0 42-5 82-13 120l-487-113-29-7Zm-21 0 48-16 476-151c20 61 26 117 26 167h-550Z"/>
    <path d="m21394 9003 96-51 440-237c20 37 34 72 44 104l-476 151-104 33Z"/>
    <path d="m21241 9086 217-179 386-319c38 47 66 90 86 127l-440 237-249 134Z"/>
    <path d="M21072 9225c-4-6-10-12-17-19l351-355 352-356c34 34 62 65 86 93l-386 319-386 318Z"/>
    <path d="M21055 9206c-14-14-31-28-49-44l329-377 328-377c36 31 67 60 95 87l-352 356-351 355Z"/>
    <path d="M21006 9162c-46-40-102-85-169-134l298-402 299-401c90 67 167 128 229 183l-328 377-329 377Z"/>
    <path d="M20837 9028c-72-54-155-112-247-174l277-416 277-416c108 72 205 140 290 203l-299 401-298 402Z"/>
    <path d="M20590 8854c-387-257-939-573-1597-881l212-453 212-453c712 333 1308 676 1727 955l-277 416-277 416Z"/>
    <path d="M18993 7973c-662-309-1431-610-2250-833l132-482 131-483c878 239 1702 561 2411 892l-212 453-212 453Z"/>
    <path d="M16743 7140c-805-220-1660-364-2506-364V5776c935 0 1879 157 2769 399l-131 483-132 482Zm-2506-364c-474 0-945 45-1403 150l-111-488-112-487c531-121 1077-175 1626-175v1000Z"/>
    <path d="M12834 6926c-449 102-885 261-1298 491l-242-437-243-437c496-276 1021-469 1560-592l112 487 111 488Z"/>
  </g>
</svg>
